# xmcd CD database file
#
# Track frame offsets:
#	225
#	12105
#	24445
#	36275
#	46222
#	59646
#	70972
#	81529
#	94869
#	106622
#	119563
#	129901
#	141738
#	153729
#	166472
#	180093
#
# Disc length: 2573 seconds
#
# Revision: 1
# Processed by: cddbd v1.5.2PL0 Copyright (c) Steve Scherf et al.
# Submitted via: CDex 1.51
#
DISCID=dc0a0a10
DTITLE=Various Artist - Classic Country Collection - CD 2
DYEAR=2000
DGENRE=Country
TTITLE0=Tennessee Ernie Ford_Sixteen Tons
TTITLE1=Hank Williams_Love Sick Blues
TTITLE2=Kitty Wells_Heartbreak U.S.A.
TTITLE3=George Hamilton IV_Abilene
TTITLE4=Bobby Helms_My Spezial Angel
TTITLE5=Sonny James_Young Love
TTITLE6=Buck Owens_Act Naturally
TTITLE7=Hank Locklin_Please Help Me I'm Falling
TTITLE8=Porter Wagoner_Misery Loves Company
TTITLE9=Jim Reeves_Distant Drums
TTITLE10=Ferlin Husky_Wings Of A Dove
TTITLE11=Tammy Wynette_I Dont't Wanna Play House
TTITLE12=Eddy Arnold_Make The World Go Away
TTITLE13=Johnny Horton_North To Alaska
TTITLE14=Jimmy Dean_Big Bad John
TTITLE15=Marty Robbins_Devil Woman
EXTD=YEAR: 2000
EXTT0=
EXTT1=
EXTT2=
EXTT3=
EXTT4=
EXTT5=
EXTT6=
EXTT7=
EXTT8=
EXTT9=
EXTT10=
EXTT11=
EXTT12=
EXTT13=
EXTT14=
EXTT15=
PLAYORDER=
